# xmcd CD database file
#
# Track frame offsets:
#	150
#	16367
#	35995
#	62352
#	77180
#	91165
#	104362
#	130397
#	144255
#	157862
#
# Disc length: 2281 seconds
#
# Revision: 5
# Processed by: cddbd v1.5.2PL0 Copyright (c) Steve Scherf et al.
# Submitted via: CDex 1.70beta2
#
DISCID=7908e70a
DTITLE=ABBA - ABBA Gold - Greatest Hits [CD2]
DYEAR=2003
DGENRE=Pop
TTITLE0=Summer Night City
TTITLE1=Angeleyes
TTITLE2=The Day Before You Came
TTITLE3=I Do, I Do, I Do, I Do, I Do
TTITLE4=So Long
TTITLE5=Honey Honey
TTITLE6=The Visitors
TTITLE7=Ring Ring
TTITLE8=When I Kissed The Teacher
TTITLE9=The Way Old Friends Do
EXTD=YEAR: 2003
EXTT0=
EXTT1=
EXTT2=
EXTT3=
EXTT4=
EXTT5=
EXTT6=
EXTT7=
EXTT8=
EXTT9=
PLAYORDER=
